<?xml version="1.0" encoding="UTF-8" standalone="no"?>
<!DOCTYPE svg PUBLIC "-//W3C//DTD SVG 1.1//EN"
 "http://www.w3.org/Graphics/SVG/1.1/DTD/svg11.dtd">
<!-- Generated by graphviz version 2.38.0 (20140413.2041)
 -->
<!-- Title: G Pages: 1 -->
<svg width="553pt" height="392pt"
 viewBox="0.00 0.00 552.78 392.00" xmlns="http://www.w3.org/2000/svg" xmlns:xlink="http://www.w3.org/1999/xlink">
<g id="graph0" class="graph" transform="scale(1 1) rotate(0) translate(4 388)">
<title>G</title>
<polygon fill="white" stroke="none" points="-4,4 -4,-388 548.784,-388 548.784,4 -4,4"/>
<!-- ImportChemicalEnergy_0 -->
<g id="node1" class="node"><title>ImportChemicalEnergy_0</title>
<ellipse fill="none" stroke="black" cx="238.542" cy="-366" rx="94.7833" ry="18"/>
<text text-anchor="middle" x="238.542" y="-362.3" font-family="Times New Roman,serif" font-size="14.00">ImportChemicalEnergy</text>
</g>
<!-- ConvertChemicalToElectricalEnergy_0 -->
<g id="node3" class="node"><title>ConvertChemicalToElectricalEnergy_0</title>
<ellipse fill="none" stroke="black" cx="238.542" cy="-279" rx="142.975" ry="18"/>
<text text-anchor="middle" x="238.542" y="-275.3" font-family="Times New Roman,serif" font-size="14.00">ConvertChemicalToElectricalEnergy</text>
</g>
<!-- ImportChemicalEnergy_0&#45;&gt;ConvertChemicalToElectricalEnergy_0 -->
<g id="edge1" class="edge"><title>ImportChemicalEnergy_0&#45;&gt;ConvertChemicalToElectricalEnergy_0</title>
<path fill="none" stroke="black" d="M238.542,-347.799C238.542,-336.163 238.542,-320.548 238.542,-307.237"/>
<polygon fill="black" stroke="black" points="242.042,-307.175 238.542,-297.175 235.042,-307.175 242.042,-307.175"/>
<text text-anchor="middle" x="284.042" y="-318.8" font-family="Times New Roman,serif" font-size="14.00">ChemicalEnergy</text>
</g>
<!-- ProtectElectricalEnergy_0 -->
<g id="node2" class="node"><title>ProtectElectricalEnergy_0</title>
<ellipse fill="none" stroke="black" cx="95.5415" cy="-192" rx="95.5831" ry="18"/>
<text text-anchor="middle" x="95.5415" y="-188.3" font-family="Times New Roman,serif" font-size="14.00">ProtectElectricalEnergy</text>
</g>
<!-- ActuateElectricalEnergy_0 -->
<g id="node4" class="node"><title>ActuateElectricalEnergy_0</title>
<ellipse fill="none" stroke="black" cx="352.542" cy="-105" rx="96.6831" ry="18"/>
<text text-anchor="middle" x="352.542" y="-101.3" font-family="Times New Roman,serif" font-size="14.00">ActuateElectricalEnergy</text>
</g>
<!-- ProtectElectricalEnergy_0&#45;&gt;ActuateElectricalEnergy_0 -->
<g id="edge2" class="edge"><title>ProtectElectricalEnergy_0&#45;&gt;ActuateElectricalEnergy_0</title>
<path fill="none" stroke="black" d="M140.602,-176.097C184.281,-161.65 250.622,-139.709 297.425,-124.229"/>
<polygon fill="black" stroke="black" points="298.706,-127.492 307.101,-121.029 296.507,-120.846 298.706,-127.492"/>
<text text-anchor="middle" x="265.542" y="-144.8" font-family="Times New Roman,serif" font-size="14.00">Electrical</text>
</g>
<!-- ConvertChemicalToElectricalEnergy_0&#45;&gt;ProtectElectricalEnergy_0 -->
<g id="edge4" class="edge"><title>ConvertChemicalToElectricalEnergy_0&#45;&gt;ProtectElectricalEnergy_0</title>
<path fill="none" stroke="black" d="M210.289,-261.207C187.816,-247.849 156.213,-229.064 131.862,-214.589"/>
<polygon fill="black" stroke="black" points="133.633,-211.57 123.248,-209.469 130.056,-217.587 133.633,-211.57"/>
<text text-anchor="middle" x="202.542" y="-231.8" font-family="Times New Roman,serif" font-size="14.00">Electrical</text>
</g>
<!-- ExportHeatEnergy_0 -->
<g id="node5" class="node"><title>ExportHeatEnergy_0</title>
<ellipse fill="none" stroke="black" cx="286.542" cy="-192" rx="77.1866" ry="18"/>
<text text-anchor="middle" x="286.542" y="-188.3" font-family="Times New Roman,serif" font-size="14.00">ExportHeatEnergy</text>
</g>
<!-- ConvertChemicalToElectricalEnergy_0&#45;&gt;ExportHeatEnergy_0 -->
<g id="edge3" class="edge"><title>ConvertChemicalToElectricalEnergy_0&#45;&gt;ExportHeatEnergy_0</title>
<path fill="none" stroke="black" d="M248.255,-260.799C255.066,-248.738 264.29,-232.403 271.978,-218.79"/>
<polygon fill="black" stroke="black" points="275.137,-220.314 277.006,-209.885 269.041,-216.872 275.137,-220.314"/>
<text text-anchor="middle" x="278.542" y="-231.8" font-family="Times New Roman,serif" font-size="14.00">Heat</text>
</g>
<!-- ExportElectricalEnergy_0 -->
<g id="node6" class="node"><title>ExportElectricalEnergy_0</title>
<ellipse fill="none" stroke="black" cx="352.542" cy="-18" rx="94.4839" ry="18"/>
<text text-anchor="middle" x="352.542" y="-14.3" font-family="Times New Roman,serif" font-size="14.00">ExportElectricalEnergy</text>
</g>
<!-- ActuateElectricalEnergy_0&#45;&gt;ExportElectricalEnergy_0 -->
<g id="edge5" class="edge"><title>ActuateElectricalEnergy_0&#45;&gt;ExportElectricalEnergy_0</title>
<path fill="none" stroke="black" d="M352.542,-86.799C352.542,-75.1626 352.542,-59.5479 352.542,-46.2368"/>
<polygon fill="black" stroke="black" points="356.042,-46.1754 352.542,-36.1754 349.042,-46.1755 356.042,-46.1754"/>
<text text-anchor="middle" x="378.542" y="-57.8" font-family="Times New Roman,serif" font-size="14.00">Electrical</text>
</g>
<!-- ImportBinarySignal_0 -->
<g id="node7" class="node"><title>ImportBinarySignal_0</title>
<ellipse fill="none" stroke="black" cx="463.542" cy="-192" rx="81.4863" ry="18"/>
<text text-anchor="middle" x="463.542" y="-188.3" font-family="Times New Roman,serif" font-size="14.00">ImportBinarySignal</text>
</g>
<!-- ImportBinarySignal_0&#45;&gt;ActuateElectricalEnergy_0 -->
<g id="edge6" class="edge"><title>ImportBinarySignal_0&#45;&gt;ActuateElectricalEnergy_0</title>
<path fill="none" stroke="black" d="M442.14,-174.611C425.128,-161.584 401.137,-143.213 382.261,-128.758"/>
<polygon fill="black" stroke="black" points="384.324,-125.93 374.256,-122.629 380.068,-131.487 384.324,-125.93"/>
<text text-anchor="middle" x="431.542" y="-144.8" font-family="Times New Roman,serif" font-size="14.00">Signal</text>
</g>
</g>
</svg>
