<?xml version="1.0" encoding="UTF-8" standalone="no"?>
<!DOCTYPE svg PUBLIC "-//W3C//DTD SVG 1.1//EN"
 "http://www.w3.org/Graphics/SVG/1.1/DTD/svg11.dtd">
<!-- Generated by graphviz version 2.38.0 (20140413.2041)
 -->
<!-- Pages: 1 -->
<svg width="603pt" height="399pt"
 viewBox="0.00 0.00 603.05 399.20" xmlns="http://www.w3.org/2000/svg" xmlns:xlink="http://www.w3.org/1999/xlink">
<g id="graph0" class="graph" transform="scale(1 1) rotate(0) translate(4 395.2)">
<polygon fill="white" stroke="none" points="-4,4 -4,-395.2 599.046,-395.2 599.046,4 -4,4"/>
<!-- ImportChemicalEnergy_0 -->
<g id="node1" class="node"><title>ImportChemicalEnergy_0</title>
<ellipse fill="none" stroke="black" cx="154.766" cy="-373.2" rx="102.427" ry="18"/>
<text text-anchor="middle" x="154.766" y="-369" font-family="Times,serif" font-size="14.00">ImportChemicalEnergy</text>
</g>
<!-- ConvertChemicalToElectricalEnergy_0 -->
<g id="node6" class="node"><title>ConvertChemicalToElectricalEnergy_0</title>
<ellipse fill="none" stroke="black" cx="154.766" cy="-284.4" rx="154.532" ry="18"/>
<text text-anchor="middle" x="154.766" y="-280.2" font-family="Times,serif" font-size="14.00">ConvertChemicalToElectricalEnergy</text>
</g>
<!-- ImportChemicalEnergy_0&#45;&gt;ConvertChemicalToElectricalEnergy_0 -->
<g id="edge1" class="edge"><title>ImportChemicalEnergy_0&#45;&gt;ConvertChemicalToElectricalEnergy_0</title>
<path fill="none" stroke="black" d="M154.766,-355.051C154.766,-342.925 154.766,-326.419 154.766,-312.519"/>
<polygon fill="black" stroke="black" points="158.266,-312.513 154.766,-302.513 151.266,-312.513 158.266,-312.513"/>
<text text-anchor="middle" x="201.806" y="-324.6" font-family="Times,serif" font-size="14.00">ChemicalEnergy</text>
</g>
<!-- ImportBinarySignal_0 -->
<g id="node2" class="node"><title>ImportBinarySignal_0</title>
<ellipse fill="none" stroke="black" cx="506.766" cy="-195.6" rx="88.0615" ry="18"/>
<text text-anchor="middle" x="506.766" y="-191.4" font-family="Times,serif" font-size="14.00">ImportBinarySignal</text>
</g>
<!-- ActuateElectricalEnergy_0 -->
<g id="node7" class="node"><title>ActuateElectricalEnergy_0</title>
<ellipse fill="none" stroke="black" cx="434.766" cy="-106.8" rx="105.892" ry="18"/>
<text text-anchor="middle" x="434.766" y="-102.6" font-family="Times,serif" font-size="14.00">ActuateElectricalEnergy</text>
</g>
<!-- ImportBinarySignal_0&#45;&gt;ActuateElectricalEnergy_0 -->
<g id="edge2" class="edge"><title>ImportBinarySignal_0&#45;&gt;ActuateElectricalEnergy_0</title>
<path fill="none" stroke="black" d="M492.541,-177.451C481.989,-164.73 467.44,-147.19 455.581,-132.895"/>
<polygon fill="black" stroke="black" points="458.039,-130.375 448.961,-124.913 452.652,-134.845 458.039,-130.375"/>
<text text-anchor="middle" x="494.655" y="-147" font-family="Times,serif" font-size="14.00">Signal</text>
</g>
<!-- ExportHeatEnergy_0 -->
<g id="node3" class="node"><title>ExportHeatEnergy_0</title>
<ellipse fill="none" stroke="black" cx="91.7656" cy="-195.6" rx="83.3693" ry="18"/>
<text text-anchor="middle" x="91.7656" y="-191.4" font-family="Times,serif" font-size="14.00">ExportHeatEnergy</text>
</g>
<!-- ProtectElectricalEnergy_0 -->
<g id="node4" class="node"><title>ProtectElectricalEnergy_0</title>
<ellipse fill="none" stroke="black" cx="296.766" cy="-195.6" rx="103.042" ry="18"/>
<text text-anchor="middle" x="296.766" y="-191.4" font-family="Times,serif" font-size="14.00">ProtectElectricalEnergy</text>
</g>
<!-- ProtectElectricalEnergy_0&#45;&gt;ActuateElectricalEnergy_0 -->
<g id="edge3" class="edge"><title>ProtectElectricalEnergy_0&#45;&gt;ActuateElectricalEnergy_0</title>
<path fill="none" stroke="black" d="M323.047,-178.069C344.821,-164.374 375.951,-144.793 399.823,-129.778"/>
<polygon fill="black" stroke="black" points="401.981,-132.556 408.582,-124.269 398.254,-126.631 401.981,-132.556"/>
<text text-anchor="middle" x="404.583" y="-147" font-family="Times,serif" font-size="14.00">Electrical</text>
</g>
<!-- ExportElectricalEnergy_0 -->
<g id="node5" class="node"><title>ExportElectricalEnergy_0</title>
<ellipse fill="none" stroke="black" cx="434.766" cy="-18" rx="102.404" ry="18"/>
<text text-anchor="middle" x="434.766" y="-13.8" font-family="Times,serif" font-size="14.00">ExportElectricalEnergy</text>
</g>
<!-- ConvertChemicalToElectricalEnergy_0&#45;&gt;ExportHeatEnergy_0 -->
<g id="edge5" class="edge"><title>ConvertChemicalToElectricalEnergy_0&#45;&gt;ExportHeatEnergy_0</title>
<path fill="none" stroke="black" d="M142.319,-266.251C133.113,-253.568 120.43,-236.092 110.07,-221.82"/>
<polygon fill="black" stroke="black" points="112.679,-219.455 103.972,-213.418 107.014,-223.567 112.679,-219.455"/>
<text text-anchor="middle" x="142.979" y="-235.8" font-family="Times,serif" font-size="14.00">Heat</text>
</g>
<!-- ConvertChemicalToElectricalEnergy_0&#45;&gt;ProtectElectricalEnergy_0 -->
<g id="edge4" class="edge"><title>ConvertChemicalToElectricalEnergy_0&#45;&gt;ProtectElectricalEnergy_0</title>
<path fill="none" stroke="black" d="M182.145,-266.664C204.683,-252.887 236.796,-233.257 261.3,-218.279"/>
<polygon fill="black" stroke="black" points="263.245,-221.192 269.952,-212.99 259.595,-215.219 263.245,-221.192"/>
<text text-anchor="middle" x="265.583" y="-235.8" font-family="Times,serif" font-size="14.00">Electrical</text>
</g>
<!-- ActuateElectricalEnergy_0&#45;&gt;ExportElectricalEnergy_0 -->
<g id="edge6" class="edge"><title>ActuateElectricalEnergy_0&#45;&gt;ExportElectricalEnergy_0</title>
<path fill="none" stroke="black" d="M434.766,-88.6511C434.766,-76.5249 434.766,-60.019 434.766,-46.119"/>
<polygon fill="black" stroke="black" points="438.266,-46.1132 434.766,-36.1133 431.266,-46.1133 438.266,-46.1132"/>
<text text-anchor="middle" x="461.583" y="-58.2" font-family="Times,serif" font-size="14.00">Electrical</text>
</g>
</g>
</svg>
