<?xml version="1.0" encoding="UTF-8" standalone="no"?>
<!DOCTYPE svg PUBLIC "-//W3C//DTD SVG 1.1//EN"
 "http://www.w3.org/Graphics/SVG/1.1/DTD/svg11.dtd">
<!-- Generated by graphviz version 2.38.0 (20140413.2041)
 -->
<!-- Pages: 1 -->
<svg width="614pt" height="399pt"
 viewBox="0.00 0.00 614.05 399.20" xmlns="http://www.w3.org/2000/svg" xmlns:xlink="http://www.w3.org/1999/xlink">
<g id="graph0" class="graph" transform="scale(1 1) rotate(0) translate(4 395.2)">
<polygon fill="white" stroke="none" points="-4,4 -4,-395.2 610.046,-395.2 610.046,4 -4,4"/>
<!-- ProtectElectricalEnergy_0 -->
<g id="node1" class="node"><title>ProtectElectricalEnergy_0</title>
<ellipse fill="none" stroke="black" cx="298.28" cy="-195.6" rx="103.042" ry="18"/>
<text text-anchor="middle" x="298.28" y="-191.4" font-family="Times,serif" font-size="14.00">ProtectElectricalEnergy</text>
</g>
<!-- ActuateElectricalEnergy_0 -->
<g id="node4" class="node"><title>ActuateElectricalEnergy_0</title>
<ellipse fill="none" stroke="black" cx="155.28" cy="-106.8" rx="105.892" ry="18"/>
<text text-anchor="middle" x="155.28" y="-102.6" font-family="Times,serif" font-size="14.00">ActuateElectricalEnergy</text>
</g>
<!-- ProtectElectricalEnergy_0&#45;&gt;ActuateElectricalEnergy_0 -->
<g id="edge1" class="edge"><title>ProtectElectricalEnergy_0&#45;&gt;ActuateElectricalEnergy_0</title>
<path fill="none" stroke="black" d="M271.047,-178.069C248.385,-164.314 215.941,-144.621 191.163,-129.58"/>
<polygon fill="black" stroke="black" points="192.777,-126.466 182.413,-124.269 189.145,-132.45 192.777,-126.466"/>
<text text-anchor="middle" x="267.097" y="-147" font-family="Times,serif" font-size="14.00">Electrical</text>
</g>
<!-- ExportElectricalEnergy_0 -->
<g id="node2" class="node"><title>ExportElectricalEnergy_0</title>
<ellipse fill="none" stroke="black" cx="155.28" cy="-18" rx="102.404" ry="18"/>
<text text-anchor="middle" x="155.28" y="-13.8" font-family="Times,serif" font-size="14.00">ExportElectricalEnergy</text>
</g>
<!-- ImportBinarySignal_0 -->
<g id="node3" class="node"><title>ImportBinarySignal_0</title>
<ellipse fill="none" stroke="black" cx="88.2805" cy="-195.6" rx="88.0615" ry="18"/>
<text text-anchor="middle" x="88.2805" y="-191.4" font-family="Times,serif" font-size="14.00">ImportBinarySignal</text>
</g>
<!-- ImportBinarySignal_0&#45;&gt;ActuateElectricalEnergy_0 -->
<g id="edge2" class="edge"><title>ImportBinarySignal_0&#45;&gt;ActuateElectricalEnergy_0</title>
<path fill="none" stroke="black" d="M101.518,-177.451C111.336,-164.73 124.876,-147.19 135.91,-132.895"/>
<polygon fill="black" stroke="black" points="138.731,-134.968 142.071,-124.913 133.19,-130.691 138.731,-134.968"/>
<text text-anchor="middle" x="146.17" y="-147" font-family="Times,serif" font-size="14.00">Signal</text>
</g>
<!-- ActuateElectricalEnergy_0&#45;&gt;ExportElectricalEnergy_0 -->
<g id="edge3" class="edge"><title>ActuateElectricalEnergy_0&#45;&gt;ExportElectricalEnergy_0</title>
<path fill="none" stroke="black" d="M155.28,-88.6511C155.28,-76.5249 155.28,-60.019 155.28,-46.119"/>
<polygon fill="black" stroke="black" points="158.781,-46.1132 155.28,-36.1133 151.781,-46.1133 158.781,-46.1132"/>
<text text-anchor="middle" x="182.097" y="-58.2" font-family="Times,serif" font-size="14.00">Electrical</text>
</g>
<!-- ExportHeatEnergy_0 -->
<g id="node5" class="node"><title>ExportHeatEnergy_0</title>
<ellipse fill="none" stroke="black" cx="503.28" cy="-195.6" rx="83.3693" ry="18"/>
<text text-anchor="middle" x="503.28" y="-191.4" font-family="Times,serif" font-size="14.00">ExportHeatEnergy</text>
</g>
<!-- ConvertChemicalToElectricalEnergy_0 -->
<g id="node6" class="node"><title>ConvertChemicalToElectricalEnergy_0</title>
<ellipse fill="none" stroke="black" cx="451.28" cy="-284.4" rx="154.532" ry="18"/>
<text text-anchor="middle" x="451.28" y="-280.2" font-family="Times,serif" font-size="14.00">ConvertChemicalToElectricalEnergy</text>
</g>
<!-- ConvertChemicalToElectricalEnergy_0&#45;&gt;ProtectElectricalEnergy_0 -->
<g id="edge4" class="edge"><title>ConvertChemicalToElectricalEnergy_0&#45;&gt;ProtectElectricalEnergy_0</title>
<path fill="none" stroke="black" d="M421.781,-266.664C397.39,-252.827 362.592,-233.085 336.146,-218.082"/>
<polygon fill="black" stroke="black" points="337.596,-214.88 327.171,-212.99 334.142,-220.969 337.596,-214.88"/>
<text text-anchor="middle" x="415.097" y="-235.8" font-family="Times,serif" font-size="14.00">Electrical</text>
</g>
<!-- ConvertChemicalToElectricalEnergy_0&#45;&gt;ExportHeatEnergy_0 -->
<g id="edge5" class="edge"><title>ConvertChemicalToElectricalEnergy_0&#45;&gt;ExportHeatEnergy_0</title>
<path fill="none" stroke="black" d="M461.554,-266.251C469.032,-253.768 479.291,-236.644 487.765,-222.5"/>
<polygon fill="black" stroke="black" points="490.892,-224.09 493.028,-213.713 484.887,-220.493 490.892,-224.09"/>
<text text-anchor="middle" x="494.494" y="-235.8" font-family="Times,serif" font-size="14.00">Heat</text>
</g>
<!-- ImportChemicalEnergy_0 -->
<g id="node7" class="node"><title>ImportChemicalEnergy_0</title>
<ellipse fill="none" stroke="black" cx="451.28" cy="-373.2" rx="102.427" ry="18"/>
<text text-anchor="middle" x="451.28" y="-369" font-family="Times,serif" font-size="14.00">ImportChemicalEnergy</text>
</g>
<!-- ImportChemicalEnergy_0&#45;&gt;ConvertChemicalToElectricalEnergy_0 -->
<g id="edge6" class="edge"><title>ImportChemicalEnergy_0&#45;&gt;ConvertChemicalToElectricalEnergy_0</title>
<path fill="none" stroke="black" d="M451.28,-355.051C451.28,-342.925 451.28,-326.419 451.28,-312.519"/>
<polygon fill="black" stroke="black" points="454.781,-312.513 451.28,-302.513 447.781,-312.513 454.781,-312.513"/>
<text text-anchor="middle" x="498.32" y="-324.6" font-family="Times,serif" font-size="14.00">ChemicalEnergy</text>
</g>
</g>
</svg>
